<?xml version="1.0" encoding="iso-8859-1"?>
<!-- Uploaded to: SVG Repo, www.svgrepo.com, Generator: SVG Repo Mixer Tools -->
<svg height="800px" width="800px" version="1.1" id="Layer_1" xmlns="http://www.w3.org/2000/svg" xmlns:xlink="http://www.w3.org/1999/xlink" 
	 viewBox="0 0 512 512" xml:space="preserve">
<path style="fill:#25B6D2;" d="M201.696,320.936H80c-44,0-80-35.872-80-79.744v-15.936c0-40.896,31.424-74.464,71.328-78.864
	C70.544,140.888,70,135.288,70,129.576c0-65.504,53.28-118.608,118.992-118.608c50.464,0,93.488,31.376,110.8,75.552
	c0,0,26.672-12.224,60.016-0.448c41.456,14.64,41.584,59.44,41.584,59.44H432c44,0,80,35.872,80,79.744v15.936
	c0,43.84-36,79.744-80,79.744H309.36"/>
<polygon style="fill:#E04F5F;" points="290,501.032 290,387.32 354.864,387.32 255.984,246.824 157.136,387.304 225.168,387.32 
	225.168,501.032 "/>
</svg>