<?xml version="1.0" encoding="UTF-8"?>
<svg version="1.1" xmlns="http://www.w3.org/2000/svg" width="335" height="103">
<path d="M0 0 C1.34905313 0.04232195 2.69793464 0.0903437 4.04663086 0.14282227 C5.10991859 0.17823875 5.10991859 0.17823875 6.19468689 0.21437073 C8.46714482 0.29117497 10.73927617 0.37512626 13.01147461 0.45922852 C14.5485678 0.51243248 16.08567711 0.56517297 17.62280273 0.61743164 C21.39840164 0.74681256 25.17372263 0.88260542 28.94897461 1.02172852 C28.94897461 3.99172852 28.94897461 6.96172852 28.94897461 10.02172852 C24.32897461 10.35172852 19.70897461 10.68172852 14.94897461 11.02172852 C20.22897461 15.97172852 25.50897461 20.92172852 30.94897461 26.02172852 C34.29472424 24.01427874 36.57713913 22.64375578 39.28100586 20.10375977 C39.85141602 19.57202148 40.42182617 19.0402832 41.00952148 18.49243164 C41.58766602 17.94522461 42.16581055 17.39801758 42.76147461 16.83422852 C43.35895508 16.27541992 43.95643555 15.71661133 44.57202148 15.14086914 C46.03472186 13.77178159 47.49236623 12.39729573 48.94897461 11.02172852 C44.65897461 10.69172852 40.36897461 10.36172852 35.94897461 10.02172852 C35.94897461 7.05172852 35.94897461 4.08172852 35.94897461 1.02172852 C46.50897461 1.02172852 57.06897461 1.02172852 67.94897461 1.02172852 C67.94897461 9.02172852 67.94897461 9.02172852 66.88256836 10.92041016 C66.38885742 11.33669678 65.89514648 11.7529834 65.38647461 12.18188477 C64.84063721 12.66197998 64.2947998 13.1420752 63.73242188 13.63671875 C63.14388428 14.11439697 62.55534668 14.5920752 61.94897461 15.08422852 C61.35463623 15.59735596 60.76029785 16.1104834 60.14794922 16.63916016 C58.96589146 17.65673536 57.77584435 18.66511509 56.57739258 19.66333008 C54.51489604 21.38382944 52.51491879 23.17057855 50.51147461 24.95922852 C47.35923297 27.68983274 44.16591787 30.36775033 40.94897461 33.02172852 C42.31880964 36.18288627 42.93803841 37.01443771 45.94897461 39.02172852 C45.94897461 41.66172852 45.94897461 44.30172852 45.94897461 47.02172852 C36.70897461 47.02172852 27.46897461 47.02172852 17.94897461 47.02172852 C17.94897461 40.02172852 17.94897461 40.02172852 20.44897461 37.08422852 C21.27397461 36.40360352 22.09897461 35.72297852 22.94897461 35.02172852 C21.57701296 31.85935691 20.09246241 30.02810671 17.44897461 27.83422852 C13.33725775 24.35680554 9.33210982 20.78197356 5.35913086 17.14672852 C3.0380797 15.04000246 3.0380797 15.04000246 0.75756836 13.39672852 C-3.84226976 9.97705088 -3.84226976 9.97705088 -4.51196289 6.91235352 C-4.55102539 4.70922852 -4.55102539 4.70922852 -4.05102539 1.02172852 C-3.05102539 0.02172852 -3.05102539 0.02172852 0 0 Z " fill="#BB935D" transform="translate(7.051025390625,51.978271484375)"/>
<path d="M0 0 C1.15628906 -0.04253906 1.15628906 -0.04253906 2.3359375 -0.0859375 C5.50779081 0.55276334 6.49080136 1.95775977 8.625 4.375 C9.88848705 6.40086519 11.08387302 8.47003079 12.2265625 10.56640625 C12.54910004 11.15292465 12.87163757 11.73944305 13.20394897 12.34373474 C14.22582062 14.20484058 15.23821019 16.0708973 16.25 17.9375 C17.27084701 19.80656493 18.29362384 21.67455577 19.31747437 23.54197693 C20.24317729 25.23260524 21.16395496 26.92592761 22.08447266 28.61938477 C23.62637014 31.46172617 23.62637014 31.46172617 25.625 34.375 C25.955 23.155 26.285 11.935 26.625 0.375 C28.935 0.375 31.245 0.375 33.625 0.375 C35.76137 2.51137 34.81381147 7.33993331 34.828125 10.30078125 C34.83382507 11.19991745 34.83952515 12.09905365 34.84539795 13.0254364 C34.85486422 14.93287982 34.86138836 16.84033971 34.86523438 18.74780273 C34.87492473 21.66484242 34.90592623 24.58117321 34.9375 27.49804688 C34.94403128 29.34895414 34.94928126 31.19986645 34.953125 33.05078125 C34.9654718 33.92382401 34.9778186 34.79686676 34.99053955 35.69636536 C34.96831686 41.74850542 34.96831686 41.74850542 33.23266602 44.91577148 C31.19893403 46.76172685 30.04444771 47.0306322 27.3125 47.125 C23.11678366 46.81966333 23.11678366 46.81966333 21.11401367 45.00878906 C16.67568546 38.73229905 12.94548632 32.11019741 9.25 25.375 C8.60341147 24.2067284 7.9562796 23.03875735 7.30859375 21.87109375 C5.74204848 19.04195976 4.18102017 16.20993211 2.625 13.375 C2.59994385 14.33913818 2.5748877 15.30327637 2.54907227 16.29663086 C2.45514694 19.86187842 2.35489061 23.42692433 2.25268555 26.99194336 C2.20928015 28.53714289 2.16760929 30.08239214 2.12768555 31.62768555 C2.07011801 33.84439096 2.00638576 36.0608448 1.94140625 38.27734375 C1.91633751 39.31954323 1.91633751 39.31954323 1.89076233 40.38279724 C1.73887171 45.26112829 1.73887171 45.26112829 0.625 46.375 C-1.70797433 46.41592937 -4.04205225 46.41741723 -6.375 46.375 C-6.42559881 40.14538023 -6.46069062 33.9158132 -6.48486328 27.68603516 C-6.49493751 25.5655723 -6.50859733 23.44512339 -6.52587891 21.32470703 C-6.55006489 18.28154057 -6.56146869 15.23855734 -6.5703125 12.1953125 C-6.58063507 11.24318878 -6.59095764 10.29106506 -6.60159302 9.31008911 C-6.60174408 8.42932709 -6.60189514 7.54856506 -6.60205078 6.64111328 C-6.606492 5.86389923 -6.61093323 5.08668518 -6.61550903 4.28591919 C-6.10333548 0.21654075 -3.51084498 0.05831968 0 0 Z " fill="#F7F7F7" transform="translate(297.375,16.625)"/>
<path d="M0 0 C4.80548597 -0.04936883 9.61082494 -0.08570443 14.41650391 -0.10986328 C16.05194672 -0.11993254 17.68737149 -0.13358881 19.32275391 -0.15087891 C21.6709437 -0.17508705 24.01889588 -0.18647357 26.3671875 -0.1953125 C27.10057343 -0.20563507 27.83395935 -0.21595764 28.58956909 -0.22659302 C30.39462697 -0.22699368 32.1990783 -0.12212755 34 0 C36.71218562 2.71218562 36.45923699 4.39676175 36.625 8.1875 C36.69976562 9.29480469 36.77453125 10.40210938 36.8515625 11.54296875 C34.66322329 20.42682287 22.6717558 25.7369188 15.45117188 30.45703125 C14.63326172 31.00230469 13.81535156 31.54757813 12.97265625 32.109375 C12.23281494 32.59374023 11.49297363 33.07810547 10.73071289 33.57714844 C8.71096048 34.98044947 8.71096048 34.98044947 8 38 C17.24 38 26.48 38 36 38 C36 40.31 36 42.62 36 45 C35 46 35 46 31.76538086 46.11352539 C30.33185874 46.11336631 28.89833088 46.10767407 27.46484375 46.09765625 C26.33496788 46.09553383 26.33496788 46.09553383 25.18226624 46.09336853 C22.7673044 46.08775376 20.35243399 46.07519883 17.9375 46.0625 C16.30403779 46.0574869 14.67057414 46.05292366 13.03710938 46.04882812 C9.02470415 46.03777954 5.01236759 46.02050506 1 46 C-0.59806407 42.97526305 -1.27358459 40.9433505 -1.25 37.5 C-1.25515625 36.7471875 -1.2603125 35.994375 -1.265625 35.21875 C-0.86277053 31.85373035 0.20222662 29.70663738 2.75244141 27.44775391 C3.44515137 26.96226074 4.13786133 26.47676758 4.8515625 25.9765625 C5.62113281 25.43 6.39070313 24.8834375 7.18359375 24.3203125 C7.98925781 23.76085937 8.79492188 23.20140625 9.625 22.625 C11.2010241 21.51373424 12.77654828 20.40175912 14.3515625 19.2890625 C15.12145508 18.74668945 15.89134766 18.20431641 16.68457031 17.64550781 C19.0004074 15.99971048 21.3002035 14.33579072 23.5859375 12.6484375 C24.24384277 12.16294434 24.90174805 11.67745117 25.57958984 11.17724609 C26.0483252 10.78875488 26.51706055 10.40026367 27 10 C27 9.67 27 9.34 27 9 C18.09 8.67 9.18 8.34 0 8 C0 5.36 0 2.72 0 0 Z " fill="#F8F8F8" transform="translate(87,17)"/>
<path d="M0 0 C2.33294775 -0.04241723 4.66702567 -0.04092937 7 0 C8.93385391 1.93385391 8.18366646 5.56925733 8.2109375 8.2109375 C8.23900797 9.69792764 8.26767245 11.18490666 8.296875 12.671875 C8.33814756 15.0244107 8.37501948 17.3767393 8.40136719 19.72949219 C8.42895542 21.99458101 8.47482806 24.25871541 8.5234375 26.5234375 C8.52669037 27.22665131 8.52994324 27.92986511 8.53329468 28.65438843 C8.60522796 31.50814994 8.69103012 33.53628348 10.29711914 35.94677734 C13.28116817 37.79239563 16.66816541 37.34603776 20.0625 37.25 C20.79533203 37.24484375 21.52816406 37.2396875 22.28320312 37.234375 C26.27253635 37.23844501 26.27253635 37.23844501 30 36 C30.02505615 34.9805127 30.0501123 33.96102539 30.07592773 32.91064453 C30.16997004 29.13479646 30.27019837 25.35913373 30.37231445 21.58349609 C30.41567538 19.94812347 30.45734961 18.31270523 30.49731445 16.67724609 C30.55498912 14.32896159 30.61869129 11.98090696 30.68359375 9.6328125 C30.70030624 8.89942657 30.71701874 8.16604065 30.73423767 7.41043091 C30.88612829 2.22774341 30.88612829 2.22774341 32 0 C34.33294775 -0.04241723 36.66702567 -0.04092937 39 0 C40.9144976 1.9144976 40.18709631 5.42682889 40.203125 8.03515625 C40.20882507 8.7472374 40.21452515 9.45931854 40.22039795 10.19297791 C40.22986728 11.7070059 40.23638957 13.22105469 40.24023438 14.73510742 C40.24985886 17.02886348 40.28082739 19.32169202 40.3125 21.61523438 C40.43391844 38.04247408 40.43391844 38.04247408 35.58300781 43.63305664 C31.4204502 47.22746751 25.35469478 46.22327889 20.1875 46.25 C19.20201172 46.270625 18.21652344 46.29125 17.20117188 46.3125 C11.79893047 46.3415248 7.49314608 46.35751575 3 43 C-0.17295211 38.0120398 -0.40649752 34.02732081 -0.29296875 28.3203125 C-0.28872391 27.50754852 -0.28447906 26.69478455 -0.28010559 25.85739136 C-0.26340804 23.27958041 -0.22577362 20.7025718 -0.1875 18.125 C-0.17244158 16.36980301 -0.1587552 14.61459369 -0.14648438 12.859375 C-0.11353392 8.57261087 -0.06181453 4.28644114 0 0 Z " fill="#F5F5F5" transform="translate(135,17)"/>
<path d="M0 0 C3.54239458 4.43493569 5.5770193 9.33505533 7.671875 14.57421875 C7.99915588 15.37986771 8.32643677 16.18551666 8.66363525 17.01557922 C9.34916707 18.70771797 10.0313884 20.40120132 10.71044922 22.09594727 C11.75235422 24.69336896 12.80702933 27.28533733 13.86328125 29.87695312 C14.52940872 31.52573366 15.19479944 33.17481208 15.859375 34.82421875 C16.17493347 35.5992424 16.49049194 36.37426605 16.81561279 37.17277527 C19 42.65406548 19 42.65406548 19 46 C16.03 46 13.06 46 10 46 C3.07 29.17 3.07 29.17 -4 12 C-5.98 16.95 -7.96 21.9 -10 27 C-7.69 27.66 -5.38 28.32 -3 29 C-0.79140845 31.88077158 -1 33.2322846 -1 37 C-5.62 37 -10.24 37 -15 37 C-15.99 39.97 -16.98 42.94 -18 46 C-20.97 46 -23.94 46 -27 46 C-24.6414568 37.32888531 -21.37488472 29.12407721 -17.95703125 20.82910156 C-16.99230504 18.48127299 -16.0428445 16.1276215 -15.09375 13.7734375 C-14.4800835 12.2756657 -13.8655324 10.77825595 -13.25 9.28125 C-12.96866211 8.57923462 -12.68732422 7.87721924 -12.39746094 7.15393066 C-9.73165691 0.76227628 -6.96560434 -0.97762868 0 0 Z " fill="#F6F6F6" transform="translate(260,17)"/>
<path d="M0 0 C3.63 0 7.26 0 11 0 C11.50423557 2.74928442 12.00353426 5.49931143 12.5 8.25 C12.64308594 9.02730469 12.78617188 9.80460937 12.93359375 10.60546875 C13.13662109 11.73662109 13.13662109 11.73662109 13.34375 12.890625 C13.46943359 13.58188477 13.59511719 14.27314453 13.72460938 14.98535156 C14 17 14 17 14 21 C20.6 21 27.2 21 34 21 C35.485 10.605 35.485 10.605 37 0 C40.63 0 44.26 0 48 0 C47.54614143 3.31316758 47.08704017 6.62547167 46.625 9.9375 C46.43550781 11.32678711 46.43550781 11.32678711 46.2421875 12.74414062 C46.11328125 13.66259766 45.984375 14.58105469 45.8515625 15.52734375 C45.73635254 16.35999756 45.62114258 17.19265137 45.50244141 18.05053711 C44.81903629 22.06230443 43.88281154 26.02734807 43 30 C30.46 30 17.92 30 5 30 C3.35 20.1 1.7 10.2 0 0 Z " fill="#D6B176" transform="translate(15,16)"/>
<path d="M0 0 C1.34905313 0.04232195 2.69793464 0.0903437 4.04663086 0.14282227 C5.10991859 0.17823875 5.10991859 0.17823875 6.19468689 0.21437073 C8.46714482 0.29117497 10.73927617 0.37512626 13.01147461 0.45922852 C14.5485678 0.51243248 16.08567711 0.56517297 17.62280273 0.61743164 C21.39840164 0.74681256 25.17372263 0.88260542 28.94897461 1.02172852 C28.94897461 3.99172852 28.94897461 6.96172852 28.94897461 10.02172852 C24.32897461 10.35172852 19.70897461 10.68172852 14.94897461 11.02172852 C23.36397461 18.94172852 23.36397461 18.94172852 31.94897461 27.02172852 C26.94897461 32.02172852 26.94897461 32.02172852 24.98413086 33.13891602 C21.57105932 32.94238598 19.6809539 30.45053193 17.38647461 28.14672852 C16.32511229 27.12465764 15.26125613 26.10517089 14.19506836 25.08813477 C13.65736816 24.5726709 13.11966797 24.05720703 12.56567383 23.52612305 C9.30712123 20.49392717 5.80491696 17.76567071 2.32397461 14.99438477 C-3.88632633 9.83615784 -3.88632633 9.83615784 -4.47680664 6.91625977 C-4.10208932 0.02921389 -4.10208932 0.02921389 0 0 Z " fill="#D3B076" transform="translate(7.051025390625,51.978271484375)"/>
<path d="M0 0 C1.05904289 0.00848969 1.05904289 0.00848969 2.13948059 0.01715088 C4.39185751 0.03952089 6.64263628 0.08971301 8.89453125 0.140625 C10.42250304 0.16068944 11.95049981 0.17894032 13.47851562 0.1953125 C17.22196881 0.23938698 20.9642292 0.30841426 24.70703125 0.390625 C24.70703125 3.030625 24.70703125 5.670625 24.70703125 8.390625 C16.12703125 8.390625 7.54703125 8.390625 -1.29296875 8.390625 C-1.25339106 14.26945503 -1.25339106 14.26945503 -1.20288086 20.14819336 C-1.2003833 20.87659424 -1.19788574 21.60499512 -1.1953125 22.35546875 C-1.19007568 23.1043335 -1.18483887 23.85319824 -1.17944336 24.62475586 C-1.29296875 26.390625 -1.29296875 26.390625 -2.29296875 27.390625 C-5.79296875 27.515625 -5.79296875 27.515625 -9.29296875 27.390625 C-11.70727546 24.97631829 -10.52663002 18.81932113 -10.54296875 15.578125 C-10.57390625 14.0612207 -10.57390625 14.0612207 -10.60546875 12.51367188 C-10.610625 11.53849609 -10.61578125 10.56332031 -10.62109375 9.55859375 C-10.63043945 8.66422607 -10.63978516 7.7698584 -10.64941406 6.84838867 C-9.68918844 0.2274357 -5.94115261 -0.17919656 0 0 Z " fill="#F6F6F6" transform="translate(196.29296875,35.609375)"/>
<path d="M0 0 C3.63 0 7.26 0 11 0 C10.54614143 3.31316758 10.08704017 6.62547167 9.625 9.9375 C9.49867187 10.86369141 9.37234375 11.78988281 9.2421875 12.74414062 C8.42355623 18.5768884 7.35240036 24.26699847 6 30 C-0.625 30.125 -0.625 30.125 -4 29 C-3.37514309 19.21775739 -1.68656475 9.64205883 0 0 Z " fill="#B9915D" transform="translate(52,16)"/>
<path d="M0 0 C8.58 0 17.16 0 26 0 C26 0.99 26 1.98 26 3 C18.41 3 10.82 3 3 3 C3 3.99 3 4.98 3 6 C8.61 6 14.22 6 20 6 C20.33 7.32 20.66 8.64 21 10 C15.06 10 9.12 10 3 10 C3 11.65 3 13.3 3 15 C10.59 15 18.18 15 26 15 C26 16.32 26 17.64 26 19 C17.42 19 8.84 19 0 19 C0 12.73 0 6.46 0 0 Z " fill="#F0F0F0" transform="translate(116,77)"/>
<path d="M0 0 C1.43352212 0.00015908 2.86704998 0.00585132 4.30053711 0.01586914 C5.43041298 0.01799156 5.43041298 0.01799156 6.58311462 0.02015686 C8.99807646 0.02577163 11.41294687 0.03832656 13.82788086 0.05102539 C15.46134307 0.05603849 17.09480672 0.06060173 18.72827148 0.06469727 C22.74067671 0.07574585 26.75301326 0.09302033 30.76538086 0.11352539 C31.14601306 2.43961109 31.47808031 4.77407803 31.76538086 7.11352539 C30.03245106 8.84645519 27.8032375 8.24172585 25.49389648 8.25247192 C24.75848633 8.25044769 24.02307617 8.24842346 23.26538086 8.24633789 C22.51450195 8.24729462 21.76362305 8.24825134 20.98999023 8.24923706 C19.39949459 8.24991877 17.80899618 8.24806511 16.21850586 8.24389648 C13.77573431 8.23854806 11.33314665 8.24384173 8.89038086 8.25024414 C7.34871378 8.24958336 5.80704682 8.24830219 4.26538086 8.24633789 C3.5299707 8.24836212 2.79456055 8.25038635 2.03686523 8.25247192 C-3.11966753 8.228477 -3.11966753 8.228477 -4.23461914 7.11352539 C-4.35961914 4.11352539 -4.35961914 4.11352539 -4.23461914 1.11352539 C-3.23461914 0.11352539 -3.23461914 0.11352539 0 0 Z " fill="#F6F6F6" transform="translate(190.234619140625,16.886474609375)"/>
<path d="M0 0 C3.3 0 6.6 0 10 0 C10 7.92 10 15.84 10 24 C3 25 3 25 0 24 C0 16.08 0 8.16 0 0 Z " fill="#D9B478" transform="translate(34,6)"/>
<path d="M0 0 C-0.33 0.99 -0.66 1.98 -1 3 C-2.28583984 2.85691406 -2.28583984 2.85691406 -3.59765625 2.7109375 C-12.52725332 1.70992136 -12.52725332 1.70992136 -21 4 C-22.49743888 5.98567734 -22.49743888 5.98567734 -23 8 C-20.37660883 10.87323795 -18.45918541 11.92320077 -14.4765625 12.1328125 C-13.06503906 12.12894531 -13.06503906 12.12894531 -11.625 12.125 C-10.68914062 12.12757812 -9.75328125 12.13015625 -8.7890625 12.1328125 C-6.09270253 12.00441441 -3.62728491 11.60188709 -1 11 C-0.67 11.99 -0.34 12.98 0 14 C-5.48564918 17.55825893 -10.66629268 17.82418822 -17 17 C-21.54679958 15.5015394 -24.3231336 14.0152996 -27 10 C-27.5 7.125 -27.5 7.125 -27 4 C-23.34509654 -0.12348083 -19.84796441 -1.8694522 -14.44921875 -2.859375 C-9.54202103 -3.14112798 -4.40874371 -2.20437186 0 0 Z " fill="#EDEDED" transform="translate(173,79)"/>
<path d="M0 0 C2.93446886 1.41791563 5.43332409 2.98332607 8 5 C6.47238013 8.62809719 4.29392861 10.94346298 1.5 13.6875 C0.30890625 14.86892578 0.30890625 14.86892578 -0.90625 16.07421875 C-4.32304408 19.21690435 -6.44456278 19.09903124 -11 19 C-11.64454511 15.36710937 -11.95606256 13.49192903 -11 10 C-7.68880636 6.18182934 -3.98151052 3.09601224 0 0 Z " fill="#D3AF74" transform="translate(14,80)"/>
<path d="M0 0 C0.99 0 1.98 0 3 0 C3.33 2.31 3.66 4.62 4 7 C9.94 7 15.88 7 22 7 C22.33 4.69 22.66 2.38 23 0 C24.32 0.33 25.64 0.66 27 1 C27 7.27 27 13.54 27 20 C25.68 20 24.36 20 23 20 C23 17.03 23 14.06 23 11 C16.4 11 9.8 11 3 11 C3 13.97 3 16.94 3 20 C2.01 20 1.02 20 0 20 C0 13.4 0 6.8 0 0 Z " fill="#EEEEEE" transform="translate(177,76)"/>
<path d="M0 0 C5.12518799 2.562594 9.37826226 5.51268972 13 10 C13.72595251 13.15229045 13.59349055 15.83471708 13 19 C10.02676828 19.43378457 7.86100926 19.56517531 5.28613281 17.875 C3.4956042 16.3096887 1.80285363 14.68544573 0.125 13 C-0.46796875 12.42765625 -1.0609375 11.8553125 -1.671875 11.265625 C-3.12748978 9.85696554 -4.56554376 8.43019969 -6 7 C-4.02 4.69 -2.04 2.38 0 0 Z " fill="#B9925E" transform="translate(62,80)"/>
<path d="M0 0 C8.91 0 17.82 0 27 0 C27 1.32 27 2.64 27 4 C23.04 4 19.08 4 15 4 C15 9.28 15 14.56 15 20 C13.68 20 12.36 20 11 20 C11 14.72 11 9.44 11 4 C7.04 4 3.08 4 -1 4 C-0.67 2.68 -0.34 1.36 0 0 Z " fill="#E3E3E3" transform="translate(85,76)"/>
</svg>
