<?xml version="1.0" encoding="UTF-8"?>
<svg version="1.1" xmlns="http://www.w3.org/2000/svg" width="333" height="100">
<path d="M0 0 C4.53897705 -0.02465392 9.07791543 -0.04283789 13.61694336 -0.05493164 C15.16219766 -0.0599714 16.70744716 -0.0668032 18.25268555 -0.07543945 C20.46925029 -0.08752076 22.68575218 -0.09323173 24.90234375 -0.09765625 C25.5971434 -0.10281754 26.29194305 -0.10797882 27.00779724 -0.11329651 C28.6722933 -0.11349277 30.33665499 -0.06189129 32 0 C33 1 33 1 33.09765625 3.06640625 C33.06510417 5.37760417 33.03255208 7.68880208 33 10 C28.38 10 23.76 10 19 10 C23.47437874 16.01726797 29.13666379 20.3791571 35 25 C38.64588458 23.44712323 41.12516129 21.19954367 44 18.5 C46.87483871 15.80045633 49.35411542 13.55287677 53 12 C53 11.34 53 10.68 53 10 C48.38 10 43.76 10 39 10 C38.90234375 3.06640625 38.90234375 3.06640625 39 1 C40 0 40 0 43.05102539 -0.11352539 C44.39991271 -0.11336634 45.74880614 -0.10767612 47.09765625 -0.09765625 C48.16094398 -0.09553383 48.16094398 -0.09553383 49.24571228 -0.09336853 C51.51801712 -0.08775443 53.79022475 -0.07519963 56.0625 -0.0625 C57.59960796 -0.05748681 59.13671745 -0.05292359 60.67382812 -0.04882812 C64.44925642 -0.03778042 68.22461171 -0.02050641 72 0 C73.02260798 3.06782394 73.40573714 4.81138345 73 8 C71.19921875 10.359375 71.19921875 10.359375 68.6875 12.75 C67.78257813 13.61238281 66.87765625 14.47476563 65.9453125 15.36328125 C62.17869151 18.73525627 58.30879912 21.94942689 54.34765625 25.08984375 C52.03515371 26.89320451 52.03515371 26.89320451 50.30859375 28.75390625 C49 30 49 30 47 30 C47 30.66 47 31.32 47 32 C46.01 32.495 46.01 32.495 45 33 C45.72830965 36.19340107 45.72830965 36.19340107 48.5625 37.75 C51 40 51 40 51.375 43.6875 C51 47 51 47 50 48 C47.92737924 48.08767112 45.85179706 48.10695873 43.77734375 48.09765625 C42.51728516 48.09443359 41.25722656 48.09121094 39.95898438 48.08789062 C38.61848891 48.07953403 37.27799412 48.07106907 35.9375 48.0625 C34.59310058 48.0574866 33.2486994 48.05292342 31.90429688 48.04882812 C28.60282059 48.03699488 25.30143197 48.02050971 22 48 C21.93407731 46.55139104 21.88685733 45.10192196 21.84765625 43.65234375 C21.81937744 42.84531006 21.79109863 42.03827637 21.76196289 41.20678711 C22 39 22 39 24.4375 36.5625 C25.283125 36.046875 26.12875 35.53125 27 35 C27.33 34.34 27.66 33.68 28 33 C27.46890625 32.78730469 26.9378125 32.57460937 26.390625 32.35546875 C23.07856217 30.47755077 20.49052817 27.91970303 17.75 25.3125 C16.59190651 24.22575131 15.43305406 23.13981084 14.2734375 22.0546875 C13.71366211 21.5297168 13.15388672 21.00474609 12.57714844 20.46386719 C9.97016269 18.04413243 7.28492716 15.71828902 4.5859375 13.40234375 C4.06257812 12.93957031 3.53921875 12.47679687 3 12 C2.47615723 11.57275635 1.95231445 11.1455127 1.41259766 10.70532227 C-0.44382252 8.46420665 -0.31216682 7.17983693 -0.1875 4.3125 C-0.16042969 3.50425781 -0.13335937 2.69601563 -0.10546875 1.86328125 C-0.07066406 1.24839844 -0.03585938 0.63351563 0 0 Z " fill="#BA9361" transform="translate(2,49)"/>
<path d="M0 0 C1.15628906 -0.04253906 1.15628906 -0.04253906 2.3359375 -0.0859375 C5.49709596 0.55060977 6.49491578 1.97463243 8.625 4.375 C9.81374861 6.25568392 10.93735568 8.17846592 12.0078125 10.12890625 C12.61753906 11.23041016 13.22726562 12.33191406 13.85546875 13.46679688 C14.48066406 14.61212891 15.10585938 15.75746094 15.75 16.9375 C17.00167639 19.21014664 18.25423992 21.48230498 19.5078125 23.75390625 C20.05840332 24.7601001 20.60899414 25.76629395 21.17626953 26.80297852 C22.64700515 29.48921611 22.64700515 29.48921611 24.625 32.375 C24.65005615 31.47668457 24.6751123 30.57836914 24.70092773 29.65283203 C24.79598693 26.32425131 24.89522421 22.99585006 24.99731445 19.66748047 C25.04066231 18.2261238 25.08233752 16.78471582 25.12231445 15.34326172 C25.18002088 13.27295459 25.24371371 11.20290568 25.30859375 9.1328125 C25.34525146 7.8864502 25.38190918 6.64008789 25.41967773 5.35595703 C25.625 2.375 25.625 2.375 26.625 0.375 C28.95794775 0.33258277 31.29202567 0.33407063 33.625 0.375 C35.76137 2.51137 34.81381147 7.33993331 34.828125 10.30078125 C34.83382507 11.19991745 34.83952515 12.09905365 34.84539795 13.0254364 C34.85486422 14.93287982 34.86138836 16.84033971 34.86523438 18.74780273 C34.87492473 21.66484242 34.90592623 24.58117321 34.9375 27.49804688 C34.94403128 29.34895414 34.94928126 31.19986645 34.953125 33.05078125 C34.9654718 33.92382401 34.9778186 34.79686676 34.99053955 35.69636536 C34.96831686 41.74850542 34.96831686 41.74850542 33.23266602 44.91577148 C31.19893403 46.76172685 30.04444771 47.0306322 27.3125 47.125 C23.11678366 46.81966333 23.11678366 46.81966333 21.11401367 45.00878906 C16.67568546 38.73229905 12.94548632 32.11019741 9.25 25.375 C8.60341147 24.2067284 7.9562796 23.03875735 7.30859375 21.87109375 C5.74204848 19.04195976 4.18102017 16.20993211 2.625 13.375 C2.59994385 14.33913818 2.5748877 15.30327637 2.54907227 16.29663086 C2.45514694 19.86187842 2.35489061 23.42692433 2.25268555 26.99194336 C2.20928015 28.53714289 2.16760929 30.08239214 2.12768555 31.62768555 C2.07011801 33.84439096 2.00638576 36.0608448 1.94140625 38.27734375 C1.91633751 39.31954323 1.91633751 39.31954323 1.89076233 40.38279724 C1.73887171 45.26112829 1.73887171 45.26112829 0.625 46.375 C-1.70797433 46.41592937 -4.04205225 46.41741723 -6.375 46.375 C-6.42559881 40.14538023 -6.46069062 33.9158132 -6.48486328 27.68603516 C-6.49493751 25.5655723 -6.50859733 23.44512339 -6.52587891 21.32470703 C-6.55006489 18.28154057 -6.56146869 15.23855734 -6.5703125 12.1953125 C-6.58063507 11.24318878 -6.59095764 10.29106506 -6.60159302 9.31008911 C-6.60174408 8.42932709 -6.60189514 7.54856506 -6.60205078 6.64111328 C-6.606492 5.86389923 -6.61093323 5.08668518 -6.61550903 4.28591919 C-6.10333548 0.21654075 -3.51084498 0.05831968 0 0 Z " fill="#0C0C0C" transform="translate(296.375,13.625)"/>
<path d="M0 0 C4.80548597 -0.04936883 9.61082494 -0.08570443 14.41650391 -0.10986328 C16.05194672 -0.11993254 17.68737149 -0.13358881 19.32275391 -0.15087891 C21.6709437 -0.17508705 24.01889588 -0.18647357 26.3671875 -0.1953125 C27.10057343 -0.20563507 27.83395935 -0.21595764 28.58956909 -0.22659302 C30.39462697 -0.22699368 32.1990783 -0.12212755 34 0 C36.71218562 2.71218562 36.45923699 4.39676175 36.625 8.1875 C36.69976562 9.29480469 36.77453125 10.40210938 36.8515625 11.54296875 C34.66322329 20.42682287 22.6717558 25.7369188 15.45117188 30.45703125 C14.63326172 31.00230469 13.81535156 31.54757813 12.97265625 32.109375 C12.23281494 32.59374023 11.49297363 33.07810547 10.73071289 33.57714844 C8.71096048 34.98044947 8.71096048 34.98044947 8 38 C17.24 38 26.48 38 36 38 C36 40.31 36 42.62 36 45 C35 46 35 46 31.76538086 46.11352539 C30.33185874 46.11336631 28.89833088 46.10767407 27.46484375 46.09765625 C26.33496788 46.09553383 26.33496788 46.09553383 25.18226624 46.09336853 C22.7673044 46.08775376 20.35243399 46.07519883 17.9375 46.0625 C16.30403779 46.0574869 14.67057414 46.05292366 13.03710938 46.04882812 C9.02470415 46.03777954 5.01236759 46.02050506 1 46 C-0.59806407 42.97526305 -1.27358459 40.9433505 -1.25 37.5 C-1.25515625 36.7471875 -1.2603125 35.994375 -1.265625 35.21875 C-0.86277053 31.85373035 0.20222662 29.70663738 2.75244141 27.44775391 C3.44515137 26.96226074 4.13786133 26.47676758 4.8515625 25.9765625 C5.62113281 25.43 6.39070313 24.8834375 7.18359375 24.3203125 C7.98925781 23.76085937 8.79492188 23.20140625 9.625 22.625 C11.2010241 21.51373424 12.77654828 20.40175912 14.3515625 19.2890625 C15.12145508 18.74668945 15.89134766 18.20431641 16.68457031 17.64550781 C19.0004074 15.99971048 21.3002035 14.33579072 23.5859375 12.6484375 C24.24384277 12.16294434 24.90174805 11.67745117 25.57958984 11.17724609 C26.0483252 10.78875488 26.51706055 10.40026367 27 10 C27 9.67 27 9.34 27 9 C18.09 8.67 9.18 8.34 0 8 C0 5.36 0 2.72 0 0 Z " fill="#070707" transform="translate(86,14)"/>
<path d="M0 0 C2.33294775 -0.04241723 4.66702567 -0.04092937 7 0 C8.93385391 1.93385391 8.18366646 5.56925733 8.2109375 8.2109375 C8.23900797 9.69792764 8.26767245 11.18490666 8.296875 12.671875 C8.33814756 15.0244107 8.37501948 17.3767393 8.40136719 19.72949219 C8.42895542 21.99458101 8.47482806 24.25871541 8.5234375 26.5234375 C8.52669037 27.22665131 8.52994324 27.92986511 8.53329468 28.65438843 C8.60522796 31.50814994 8.69103012 33.53628348 10.29711914 35.94677734 C13.28116817 37.79239563 16.66816541 37.34603776 20.0625 37.25 C20.79533203 37.24484375 21.52816406 37.2396875 22.28320312 37.234375 C26.27253635 37.23844501 26.27253635 37.23844501 30 36 C30.02505615 34.94498291 30.0501123 33.88996582 30.07592773 32.80297852 C30.16984109 28.90229372 30.27010034 25.00179375 30.37231445 21.10131836 C30.41572439 19.41060701 30.45739489 17.71985009 30.49731445 16.02905273 C30.55487094 13.60386394 30.61860649 11.17890585 30.68359375 8.75390625 C30.70030624 7.99348526 30.71701874 7.23306427 30.73423767 6.44960022 C30.88612829 1.11387171 30.88612829 1.11387171 32 0 C35.5 -0.125 35.5 -0.125 39 0 C40.9144976 1.9144976 40.18709631 5.42682889 40.203125 8.03515625 C40.20882507 8.7472374 40.21452515 9.45931854 40.22039795 10.19297791 C40.22986728 11.7070059 40.23638957 13.22105469 40.24023438 14.73510742 C40.24985886 17.02886348 40.28082739 19.32169202 40.3125 21.61523438 C40.43391844 38.04247408 40.43391844 38.04247408 35.58300781 43.63305664 C31.33589006 47.30048605 24.96083169 46.26370298 19.6875 46.3125 C18.65431641 46.34150391 17.62113281 46.37050781 16.55664062 46.40039062 C10.59389419 46.45011205 6.52806747 46.33601241 2 42 C-0.37152474 37.60715636 -0.25942779 33.28456946 -0.1953125 28.41796875 C-0.1924826 27.60378983 -0.18965271 26.7896109 -0.18673706 25.95075989 C-0.17558584 23.362854 -0.15049083 20.77530042 -0.125 18.1875 C-0.11496365 16.42773939 -0.10583894 14.66797333 -0.09765625 12.90820312 C-0.0756631 8.60533402 -0.04116836 4.30272664 0 0 Z " fill="#0B0B0B" transform="translate(134,14)"/>
<path d="M0 0 C3.67927291 1.31352161 5.34764361 5.28851721 6.96702576 8.67572021 C7.91572112 10.87116701 8.81909119 13.08007311 9.70703125 15.30078125 C10.03431213 16.10643021 10.36159302 16.91207916 10.6987915 17.74214172 C11.38432332 19.43428047 12.06654465 21.12776382 12.74560547 22.82250977 C13.78751047 25.41993146 14.84218558 28.01189983 15.8984375 30.60351562 C16.56456497 32.25229616 17.22995569 33.90137458 17.89453125 35.55078125 C18.21008972 36.3258049 18.52564819 37.10082855 18.85076904 37.89933777 C21.03515625 43.38062798 21.03515625 43.38062798 21.03515625 46.7265625 C18.06515625 46.7265625 15.09515625 46.7265625 12.03515625 46.7265625 C5.10515625 29.8965625 5.10515625 29.8965625 -1.96484375 12.7265625 C-3.94484375 17.6765625 -5.92484375 22.6265625 -7.96484375 27.7265625 C-5.65484375 28.3865625 -3.34484375 29.0465625 -0.96484375 29.7265625 C1.03515625 32.7265625 1.03515625 32.7265625 1.03515625 37.7265625 C-3.58484375 37.7265625 -8.20484375 37.7265625 -12.96484375 37.7265625 C-13.95484375 40.6965625 -14.94484375 43.6665625 -15.96484375 46.7265625 C-18.93484375 46.7265625 -21.90484375 46.7265625 -24.96484375 46.7265625 C-24.24951052 41.950383 -22.49878337 37.72946483 -20.69140625 33.28515625 C-20.36699554 32.48046402 -20.04258484 31.67577179 -19.70834351 30.84669495 C-19.02295363 29.15055915 -18.33529292 27.45533943 -17.64550781 25.76098633 C-16.59325553 23.17245544 -15.55209618 20.57965079 -14.51171875 17.98632812 C-13.84311594 16.33566676 -13.17386672 14.68526704 -12.50390625 13.03515625 C-12.19442047 12.26215683 -11.88493469 11.48915741 -11.56607056 10.69273376 C-7.3343642 0.3674248 -7.3343642 0.3674248 0 0 Z " fill="#0B0B0B" transform="translate(256.96484375,13.2734375)"/>
<path d="M0 0 C3.3 0.33 6.6 0.66 10 1 C11.32 7.6 12.64 14.2 14 21 C19.94 21 25.88 21 32 21 C33.32 14.07 34.64 7.14 36 0 C39.63 0 43.26 0 47 0 C46.31437433 10.55863532 44.67113547 20.41614203 43 31 C30.13 31 17.26 31 4 31 C0.51175606 14.72152829 0.51175606 14.72152829 -0.25 8.1875 C-0.34023437 7.49591797 -0.43046875 6.80433594 -0.5234375 6.09179688 C-0.72975689 4.39964512 -0.87170951 2.69984905 -1 1 C-0.67 0.67 -0.34 0.34 0 0 Z " fill="#D6B278" transform="translate(15,12)"/>
<path d="M0 0 C4.53897705 -0.02465392 9.07791543 -0.04283789 13.61694336 -0.05493164 C15.16219766 -0.0599714 16.70744716 -0.0668032 18.25268555 -0.07543945 C20.46925029 -0.08752076 22.68575218 -0.09323173 24.90234375 -0.09765625 C25.5971434 -0.10281754 26.29194305 -0.10797882 27.00779724 -0.11329651 C28.6722933 -0.11349277 30.33665499 -0.06189129 32 0 C33 1 33 1 33.09765625 3.06640625 C33.06510417 5.37760417 33.03255208 7.68880208 33 10 C28.38 10 23.76 10 19 10 C22.88936704 15.23052809 27.52682133 18.96661705 32.671875 22.94921875 C35 25 35 25 36 28 C30.84723196 32.91310441 30.84723196 32.91310441 27.5625 33.25 C24.33936613 31.67773958 22.39961999 29.56717152 19.9609375 26.96875 C17.88847913 24.88803483 15.71488233 23.14740256 13.375 21.375 C9.97429096 18.7941563 6.94038141 16.10840321 4 13 C3.236875 12.4225 2.47375 11.845 1.6875 11.25 C-0.31231012 8.58358651 -0.18414235 7.61121695 -0.10546875 4.359375 C-0.0902417 3.54436523 -0.07501465 2.72935547 -0.05932617 1.88964844 C-0.03974854 1.26606445 -0.0201709 0.64248047 0 0 Z " fill="#D2B078" transform="translate(2,49)"/>
<path d="M0 0 C1.05904289 0.00848969 1.05904289 0.00848969 2.13948059 0.01715088 C4.39185751 0.03952089 6.64263628 0.08971301 8.89453125 0.140625 C10.42250304 0.16068944 11.95049981 0.17894032 13.47851562 0.1953125 C17.22196881 0.23938698 20.9642292 0.30841426 24.70703125 0.390625 C24.70703125 3.030625 24.70703125 5.670625 24.70703125 8.390625 C16.12703125 8.390625 7.54703125 8.390625 -1.29296875 8.390625 C-1.25339106 14.26945503 -1.25339106 14.26945503 -1.20288086 20.14819336 C-1.2003833 20.87659424 -1.19788574 21.60499512 -1.1953125 22.35546875 C-1.19007568 23.1043335 -1.18483887 23.85319824 -1.17944336 24.62475586 C-1.29296875 26.390625 -1.29296875 26.390625 -2.29296875 27.390625 C-5.79296875 27.515625 -5.79296875 27.515625 -9.29296875 27.390625 C-11.70727546 24.97631829 -10.52663002 18.81932113 -10.54296875 15.578125 C-10.57390625 14.0612207 -10.57390625 14.0612207 -10.60546875 12.51367188 C-10.610625 11.53849609 -10.61578125 10.56332031 -10.62109375 9.55859375 C-10.63043945 8.66422607 -10.63978516 7.7698584 -10.64941406 6.84838867 C-9.68918844 0.2274357 -5.94115261 -0.17919656 0 0 Z " fill="#0A0A0A" transform="translate(195.29296875,32.609375)"/>
<path d="M0 0 C3.63 0 7.26 0 11 0 C10.32104629 10.45588708 8.71716361 20.6754188 7 31 C3.04 31 -0.92 31 -5 31 C-3.43525319 20.64859803 -1.73796463 10.32350991 0 0 Z " fill="#B99261" transform="translate(51,12)"/>
<path d="M0 0 C8.58 0 17.16 0 26 0 C26 0.99 26 1.98 26 3 C15.11 3.495 15.11 3.495 4 4 C3.67 4.66 3.34 5.32 3 6 C8.61 6 14.22 6 20 6 C20.33 7.32 20.66 8.64 21 10 C15.06 10 9.12 10 3 10 C3 11.65 3 13.3 3 15 C10.59 15 18.18 15 26 15 C26 16.32 26 17.64 26 19 C17.42 19 8.84 19 0 19 C0 12.73 0 6.46 0 0 Z " fill="#111111" transform="translate(115,74)"/>
<path d="M0 0 C0.73541016 0.00202423 1.47082031 0.00404846 2.22851562 0.00613403 C2.97939453 0.00517731 3.73027344 0.00422058 4.50390625 0.00323486 C6.09440189 0.00255315 7.6849003 0.00440682 9.27539062 0.00857544 C11.71816217 0.01392386 14.16074984 0.00863019 16.60351562 0.00222778 C18.1451827 0.00288857 19.68684966 0.00416973 21.22851562 0.00613403 C21.96392578 0.0041098 22.69933594 0.00208557 23.45703125 0 C28.61356402 0.02399493 28.61356402 0.02399493 29.72851562 1.13894653 C29.85351562 4.13894653 29.85351562 4.13894653 29.72851562 7.13894653 C27.99558583 8.87187633 25.76637227 8.267147 23.45703125 8.27789307 C22.72162109 8.27586884 21.98621094 8.2738446 21.22851562 8.27175903 C20.47763672 8.27271576 19.72675781 8.27367249 18.953125 8.2746582 C17.36262936 8.27533991 15.77213095 8.27348625 14.18164062 8.26931763 C11.73886908 8.2639692 9.29628141 8.26926287 6.85351562 8.27566528 C5.31184855 8.2750045 3.77018159 8.27372333 2.22851562 8.27175903 C1.49310547 8.27378326 0.75769531 8.2758075 0 8.27789307 C-5.15653277 8.25389814 -5.15653277 8.25389814 -6.27148438 7.13894653 C-6.39648438 4.13894653 -6.39648438 4.13894653 -6.27148438 1.13894653 C-4.53855458 -0.59398326 -2.30934102 0.01074607 0 0 Z " fill="#0A0A0A" transform="translate(191.271484375,13.861053466796875)"/>
<path d="M0 0 C3.3 0 6.6 0 10 0 C10 8.25 10 16.5 10 25 C6.7 25 3.4 25 0 25 C-1.68516954 23.31483046 -1.13008019 21.21232212 -1.1328125 18.90625 C-1.13474609 17.36130859 -1.13474609 17.36130859 -1.13671875 15.78515625 C-1.13285156 14.70105469 -1.12898438 13.61695313 -1.125 12.5 C-1.12886719 11.41589844 -1.13273437 10.33179688 -1.13671875 9.21484375 C-1.13542969 8.18488281 -1.13414063 7.15492187 -1.1328125 6.09375 C-1.13168457 5.14177734 -1.13055664 4.18980469 -1.12939453 3.20898438 C-1 1 -1 1 0 0 Z " fill="#D5B37B" transform="translate(33,3)"/>
<path d="M0 0 C0.99 0 1.98 0 3 0 C3 2.31 3 4.62 3 7 C9.6 7 16.2 7 23 7 C23 4.69 23 2.38 23 0 C24.32 0.33 25.64 0.66 27 1 C27 7.27 27 13.54 27 20 C25.68 20 24.36 20 23 20 C23 17.03 23 14.06 23 11 C13.595 11.495 13.595 11.495 4 12 C3.67 14.64 3.34 17.28 3 20 C2.01 20 1.02 20 0 20 C0 13.4 0 6.8 0 0 Z " fill="#1D1D1D" transform="translate(176,73)"/>
<path d="M0 0 C-0.66 1.32 -1.32 2.64 -2 4 C-2.969375 3.649375 -3.93875 3.29875 -4.9375 2.9375 C-10.07674625 1.46466723 -15.2407404 1.92559803 -20.20703125 3.859375 C-22.3326895 4.94689843 -22.3326895 4.94689843 -23 8 C-20.37660883 10.87323795 -18.45918541 11.92320077 -14.4765625 12.1328125 C-13.06503906 12.12894531 -13.06503906 12.12894531 -11.625 12.125 C-10.68914062 12.12757812 -9.75328125 12.13015625 -8.7890625 12.1328125 C-6.09270253 12.00441441 -3.62728491 11.60188709 -1 11 C-0.67 11.99 -0.34 12.98 0 14 C-5.48059544 17.55498083 -10.67070395 17.83256652 -17 17 C-20.94279922 15.64326941 -24.05051518 13.94948482 -27 11 C-27.5 7.6875 -27.5 7.6875 -27 4 C-23.38759659 -0.16815779 -19.84724992 -1.86958321 -14.44921875 -2.859375 C-9.54202103 -3.14112798 -4.40874371 -2.20437186 0 0 Z " fill="#181818" transform="translate(172,76)"/>
<path d="M0 0 C5.61980698 1.52524648 9.77994526 5.2365127 13 10 C13.64153279 13.44762662 13.51020706 16.54192994 13 20 C10.43074648 20.41050103 8.63996895 20.38943697 6.38476562 19.01708984 C4.61538455 17.63045816 2.92835649 16.18293449 1.25 14.6875 C0.66089844 14.18798828 0.07179688 13.68847656 -0.53515625 13.17382812 C-3.21009059 10.85247706 -4.8617782 9.4146654 -6 6 C-5.67 5.34 -5.34 4.68 -5 4 C-4.34 4 -3.68 4 -3 4 C-3 3.34 -3 2.68 -3 2 C-2.01 1.34 -1.02 0.68 0 0 Z " fill="#B89363" transform="translate(61,77)"/>
<path d="M0 0 C0.81210937 0.38091797 0.81210937 0.38091797 1.640625 0.76953125 C1.640625 1.42953125 1.640625 2.08953125 1.640625 2.76953125 C2.960625 3.42953125 4.280625 4.08953125 5.640625 4.76953125 C5.640625 7.76953125 5.640625 7.76953125 4.06640625 9.41796875 C3.36902344 9.98773438 2.67164062 10.5575 1.953125 11.14453125 C-0.59706756 13.25549908 -2.76603253 15.22460039 -4.984375 17.70703125 C-7.359375 19.76953125 -7.359375 19.76953125 -10.671875 20.08203125 C-11.55875 19.97890625 -12.445625 19.87578125 -13.359375 19.76953125 C-14.1075378 16.21764727 -14.23361097 13.30947036 -13.359375 9.76953125 C-5.24633795 -0.51247341 -5.24633795 -0.51247341 0 0 Z " fill="#D5B078" transform="translate(15.359375,77.23046875)"/>
<path d="M0 0 C8.91 0 17.82 0 27 0 C27 1.32 27 2.64 27 4 C23.04 4 19.08 4 15 4 C15 9.28 15 14.56 15 20 C13.68 20 12.36 20 11 20 C11 14.72 11 9.44 11 4 C7.04 4 3.08 4 -1 4 C-0.67 2.68 -0.34 1.36 0 0 Z " fill="#1F1F1F" transform="translate(84,73)"/>
<path d="M0 0 C2.0625 0.4375 2.0625 0.4375 4 1 C1.04798117 3.95201883 -1.95295336 5.13277572 -6 6 C-4 4 -2 2 0 0 Z " fill="#C8AB7B" transform="translate(13,77)"/>
</svg>
